<?xml version="1.0" standalone="no"?>
<!DOCTYPE svg PUBLIC "-//W3C//DTD SVG 20010904//EN"
 "http://www.w3.org/TR/2001/REC-SVG-20010904/DTD/svg10.dtd">
<svg version="1.0" xmlns="http://www.w3.org/2000/svg"
 width="500.000000pt" height="500.000000pt" viewBox="0 0 500.000000 500.000000"
 preserveAspectRatio="xMidYMid meet">

<g transform="translate(0.000000,500.000000) scale(0.100000,-0.100000)"
fill="#000000" stroke="none">
<path d="M1075 3214 c-11 -2 -45 -9 -75 -15 -68 -14 -180 -61 -240 -102 -111
-76 -241 -230 -222 -263 9 -16 10 -15 16 4 6 18 36 33 36 18 0 -16 -41 -95
-52 -99 -8 -3 -9 -6 -1 -6 8 -1 9 -10 2 -33 -5 -18 -9 -40 -8 -48 1 -8 6 5 13
30 9 35 17 46 35 48 13 2 28 -2 32 -10 7 -10 9 -10 9 0 0 7 14 12 34 12 28 0
35 -4 39 -22 l4 -23 2 23 c0 12 5 22 10 22 5 0 7 9 4 20 -5 18 0 20 42 20 39
0 46 -3 41 -17 -3 -10 -8 -44 -11 -75 -7 -55 -8 -57 -39 -61 l-31 -4 30 -1 30
-2 -3 -65 -4 -65 -49 0 -49 0 5 43 c3 23 7 59 9 81 2 21 10 43 18 48 7 4 28
18 46 29 48 31 39 34 -13 3 -32 -18 -45 -22 -46 -12 0 7 -5 2 -11 -12 -6 -14
-10 -46 -8 -73 1 -26 -1 -61 -5 -77 -6 -26 -11 -30 -41 -30 -34 0 -34 1 -34
44 0 36 5 49 26 65 14 11 30 22 37 24 7 2 9 8 4 12 -4 5 -20 -1 -36 -12 l-28
-21 8 41 c12 62 9 79 -5 27 -9 -35 -17 -46 -35 -48 -13 -2 -28 2 -32 10 -7 10
-9 10 -9 1 0 -7 -7 -13 -15 -13 -8 0 -15 6 -15 13 0 20 26 111 39 134 6 12 8
29 4 39 -5 13 -11 7 -29 -27 -25 -47 -34 -88 -13 -59 8 11 9 8 4 -14 -3 -15
-9 -41 -12 -57 -3 -16 -9 -29 -13 -29 -5 0 -6 10 -4 23 4 20 4 21 -5 2 -5 -11
-9 -38 -9 -60 l1 -40 7 35 7 35 2 -42 c1 -52 -8 -81 -20 -61 -7 10 -9 8 -9 -7
-1 -11 -20 -35 -46 -55 -77 -60 -211 -205 -238 -259 -14 -27 -26 -63 -26 -79
0 -70 75 -109 188 -98 34 4 62 5 62 2 0 -2 -9 -23 -20 -47 -11 -24 -20 -57
-20 -72 0 -38 46 -84 95 -93 49 -9 167 9 273 42 l81 25 59 -30 c138 -70 338
-91 485 -52 121 33 255 101 241 122 -3 5 1 6 9 3 25 -9 168 152 215 243 39 75
58 131 31 93 -8 -11 -9 -6 -5 20 l5 35 -11 -32 c-10 -31 -38 -47 -38 -22 0 21
23 99 29 99 4 0 5 18 3 40 -4 38 9 70 29 70 4 0 5 -25 2 -57 -5 -42 -3 -54 6
-49 8 6 10 0 6 -21 -4 -23 -4 -24 4 -8 5 11 10 34 10 50 0 26 -2 27 -9 10 l-9
-20 0 20 c-1 11 2 38 6 60 l8 40 6 -40 6 -40 2 48 c0 26 5 47 10 47 18 0 219
201 251 250 92 143 48 216 -126 208 -78 -3 -99 2 -74 17 5 3 16 29 24 56 20
65 5 109 -43 129 -47 19 -188 7 -295 -25 l-90 -26 -66 30 c-37 16 -94 37 -126
45 -59 16 -231 29 -269 20z m32 -34 c-9 -23 -18 -30 -37 -30 -25 1 -25 1 10
30 19 17 35 30 36 30 1 0 -3 -13 -9 -30z m51 0 c2 -26 -1 -30 -23 -30 -29 0
-32 16 -8 42 22 25 28 23 31 -12z m45 0 l18 -30 -25 0 c-22 0 -26 4 -26 30 0
17 4 30 8 30 4 0 16 -13 25 -30z m75 -2 c7 2 20 -2 29 -10 9 -7 14 -8 10 -2
-4 8 2 11 17 10 13 0 22 -5 18 -10 -3 -5 1 -7 9 -4 8 3 26 0 40 -8 13 -7 20
-13 16 -14 -5 0 -17 5 -28 10 -13 7 -19 7 -19 0 0 -5 5 -10 12 -10 7 0 26 -12
42 -27 20 -19 24 -20 12 -5 -16 19 -17 22 -3 22 9 0 19 -4 22 -10 3 -5 12 -10
18 -10 7 0 6 4 -3 10 -8 5 -10 10 -4 10 6 0 18 -8 25 -17 10 -11 10 -14 2 -9
-7 4 -13 3 -13 -3 0 -6 -17 -13 -37 -17 -31 -6 -39 -3 -55 17 -45 57 -49 60
-69 54 -11 -4 -26 -1 -34 5 -11 9 -15 9 -15 1 0 -23 -39 -10 -53 18 l-15 29
32 -17 c17 -10 37 -16 44 -13z m-275 -12 c-3 -6 -1 -6 8 2 7 6 22 12 32 12 16
0 17 -3 7 -15 -9 -11 -26 -14 -59 -11 -25 2 -54 0 -63 -5 -10 -6 -18 -7 -18
-5 0 10 49 31 74 32 17 1 24 -2 19 -10z m-60 -54 c-12 -16 -32 -28 -48 -30
-26 -3 -28 -2 -14 14 17 21 71 55 78 48 3 -2 -4 -17 -16 -32z m951 28 c44 -17
50 -44 22 -103 -14 -29 -32 -60 -40 -71 -16 -19 -151 -63 -140 -44 7 11 -147
168 -166 168 -6 0 -9 -4 -6 -8 2 -4 -6 -9 -20 -10 -13 -1 -24 3 -24 9 0 5 4 7
10 4 5 -3 20 1 32 8 19 12 76 28 183 50 39 9 124 7 149 -3z m-874 -8 c0 -23
-34 -52 -61 -52 l-31 0 24 29 c21 27 68 43 68 23z m140 -23 c0 -27 -3 -29 -39
-29 -35 0 -39 2 -35 23 l5 22 -10 -22 c-8 -17 -19 -23 -41 -23 -34 0 -34 0
-19 34 11 23 17 25 75 25 l64 0 0 -30z m145 1 l16 -30 -35 0 c-28 0 -36 5 -45
28 l-11 27 5 -27 c5 -26 3 -28 -30 -28 -32 0 -35 2 -35 30 0 30 0 30 60 30 56
0 60 -2 75 -30z m63 0 l23 -30 -30 0 c-24 0 -34 7 -46 30 -15 29 -15 30 8 30
14 0 32 -12 45 -30z m-538 -10 c-19 -16 -41 -29 -49 -30 -8 0 3 13 25 30 51
38 69 39 24 0z m28 -22 c-24 -28 -53 -61 -64 -74 -12 -13 -20 -25 -17 -27 2
-3 -6 -25 -19 -51 -20 -41 -25 -46 -56 -46 l-34 0 23 38 c50 82 102 142 123
143 12 0 15 3 8 6 -9 4 -3 14 20 34 53 46 63 33 16 -23z m32 -48 c-18 -35 -25
-40 -56 -40 l-35 0 28 40 c21 30 35 40 56 40 l27 0 -20 -40z m181 28 c0 -10 2
-10 6 0 2 7 22 12 44 12 l39 0 -1 -57 c-1 -47 -5 -61 -23 -75 l-21 -17 23 6
c18 4 22 1 22 -16 0 -20 -5 -22 -55 -20 -54 2 -56 3 -51 28 3 14 7 49 10 76 5
49 5 49 -4 10 -5 -22 -12 -57 -15 -77 -6 -37 -7 -38 -50 -38 -40 0 -45 3 -45
23 0 43 12 67 34 68 18 1 18 2 3 6 -10 3 -17 10 -14 16 14 37 14 56 0 25 -19
-45 -32 -49 -34 -10 l-2 27 -4 -27 c-3 -22 -10 -28 -29 -28 l-24 0 20 40 20
40 75 0 c53 0 75 -4 76 -12z m180 -24 c5 -29 3 -34 -31 -53 -21 -12 -40 -21
-44 -21 -3 0 -6 25 -6 56 l0 55 37 -3 c33 -3 38 -7 44 -34z m80 24 c0 -10 2
-10 6 0 2 6 19 12 36 11 30 0 28 -3 -28 -29 -76 -36 -82 -36 -87 0 -4 29 -3
30 34 30 23 0 38 -5 39 -12z m208 -11 c14 -12 48 -61 88 -126 13 -20 23 -31
23 -26 0 6 -9 25 -20 43 -19 31 -19 32 -1 32 19 0 61 -47 61 -68 0 -9 -46 -22
-81 -22 -22 0 -78 100 -57 101 7 0 5 3 -4 7 -9 4 -29 22 -43 41 -14 19 -25 30
-25 24 0 -7 4 -15 10 -18 5 -3 15 -15 20 -26 10 -17 7 -19 -23 -19 -27 0 -36
6 -45 25 -7 14 -12 30 -12 35 0 20 83 18 109 -3z m-789 -27 c-19 -24 -40 -40
-53 -40 -18 0 -16 5 18 40 21 22 45 40 53 40 9 0 2 -15 -18 -40z m855 3 c33
-32 35 -32 11 -5 -39 42 -19 42 22 -1 l33 -34 -34 -1 c-29 -1 -40 5 -66 38
-40 51 -20 52 34 3z m-905 -8 c-19 -19 -38 -35 -44 -35 -5 0 5 16 24 35 19 19
38 35 44 35 5 0 -5 -16 -24 -35z m730 6 c15 -29 13 -31 -30 -31 -33 0 -40 3
-40 19 0 34 53 42 70 12z m-80 -15 c0 -8 -6 -17 -12 -19 -8 -3 -6 -6 4 -6 11
-1 21 -15 27 -38 15 -54 16 -53 -38 -53 l-49 0 -7 46 c-3 25 -5 47 -3 47 2 1
17 10 33 19 37 21 45 22 45 4z m-494 -48 l-6 -23 11 23 c8 15 21 22 41 22 27
0 28 -2 28 -45 l0 -45 -37 -1 -38 -2 35 -6 35 -6 -32 -33 c-35 -35 -73 -43
-74 -14 0 13 -2 12 -9 -5 -8 -19 -17 -23 -50 -23 -39 0 -40 1 -35 28 l5 27
-11 -27 c-6 -16 -14 -28 -19 -28 -4 0 -6 -9 -3 -20 5 -17 0 -20 -31 -20 -42 0
-42 0 -19 62 l17 47 58 0 c33 -1 62 2 65 5 4 3 -3 6 -15 6 -27 0 -27 -1 0 55
20 40 26 45 56 45 30 0 33 -2 28 -22z m408 -9 c11 -57 10 -59 -44 -59 -48 0
-50 1 -50 28 0 22 7 30 38 44 50 22 49 22 56 -13z m198 0 c6 -16 12 -28 14
-26 3 2 0 16 -5 31 -10 25 -9 26 24 26 30 0 37 -5 55 -40 25 -48 25 -57 3 -63
-14 -4 -12 -5 5 -6 31 -1 27 -16 -9 -31 -26 -11 -32 -11 -40 1 -7 11 -9 10 -9
-4 0 -11 -15 -25 -42 -37 l-43 -19 -7 22 c-5 20 -6 19 -7 -5 -1 -27 -3 -28
-56 -28 l-55 0 0 39 c0 22 -3 46 -6 55 -5 13 3 16 50 16 54 0 56 -1 57 -27 l2
-28 4 27 c4 23 10 27 41 31 l37 4 -41 1 c-37 2 -43 5 -48 30 -4 15 -9 35 -12
45 -5 14 1 17 36 17 37 0 42 -3 52 -31z m-818 -7 c-30 -51 -55 -78 -61 -64 -2
6 -10 9 -15 6 -7 -4 -8 -2 -4 5 4 6 12 9 17 6 8 -6 13 8 10 28 0 4 5 6 12 5 6
-2 11 5 11 14 -1 10 2 16 6 13 5 -3 11 -1 15 5 15 24 24 7 9 -18z m43 -14
c-15 -25 -34 -44 -46 -46 -27 -4 -26 0 5 48 16 24 34 40 46 40 19 0 19 -2 -5
-42z m1007 26 c3 -8 9 -13 13 -11 5 3 9 -6 9 -19 2 -33 -7 -30 -34 11 -16 26
-19 35 -8 35 8 0 17 -7 20 -16z m434 -40 c53 -37 6 -130 -142 -282 -100 -103
-101 -104 -107 -76 -7 28 -7 28 -9 -6 -2 -33 -3 -33 -10 -10 -4 14 -8 39 -8
55 -1 25 1 27 8 10 7 -17 9 -16 9 10 0 17 -5 39 -10 50 -8 17 -9 17 -4 -5 4
-22 1 -26 -24 -28 -25 -2 -28 2 -39 49 -15 64 -15 69 2 69 7 0 20 -23 29 -52
9 -29 14 -39 11 -23 -3 17 -7 38 -11 49 -3 12 -1 16 6 12 15 -9 14 -4 -5 44
l-16 40 38 43 c44 48 91 65 194 66 44 1 73 -4 88 -15z m-1088 -56 c0 -45 -14
-51 -48 -23 -42 35 -40 45 8 45 35 0 40 -3 40 -22z m120 -18 l0 -40 -47 0
c-62 0 -72 8 -66 48 5 32 6 32 59 32 l54 0 0 -40z m114 24 c3 -9 6 -33 6 -55
l0 -39 -53 0 -54 0 -2 55 -2 55 50 0 c35 0 51 -4 55 -16z m-624 0 c0 -4 -8
-28 -17 -55 -15 -42 -21 -49 -45 -49 l-27 0 16 38 c26 62 33 72 53 72 11 0 20
-3 20 -6z m1107 -16 c-2 -7 -10 -12 -16 -10 -6 1 -11 -4 -11 -12 0 -7 -6 -19
-14 -25 -11 -10 -17 -8 -26 6 -11 17 -11 17 -6 -1 8 -23 -10 -46 -36 -46 -17
0 -31 22 -30 47 1 7 109 51 130 52 8 1 12 -5 9 -11z m-1241 -75 c-8 -15 -15
-25 -16 -21 0 12 23 58 27 54 3 -2 -2 -17 -11 -33z m1304 -7 c-1 -6 -7 0 -16
14 -14 23 -14 23 -9 3 5 -20 3 -23 -19 -21 l-25 2 22 24 c20 22 22 22 34 6 7
-10 13 -23 13 -28z m-205 -3 c6 -34 4 -40 -27 -65 -18 -15 -36 -28 -39 -28 -6
0 -19 60 -19 92 0 15 36 35 66 37 7 1 15 -16 19 -36z m-755 17 c11 -7 7 -10
-17 -10 -18 0 -33 5 -33 10 0 13 30 13 50 0z m300 0 c0 -6 -27 -10 -60 -10
-33 0 -60 4 -60 10 0 6 27 10 60 10 33 0 60 -4 60 -10z m-260 -80 l0 -60 -56
0 -57 0 8 48 c4 26 7 52 8 58 0 6 22 12 49 13 l48 1 0 -60z m130 31 c0 -16 -3
-43 -6 -60 -6 -27 -10 -31 -40 -31 -32 0 -34 2 -34 35 0 47 26 85 56 85 20 0
24 -5 24 -29z m128 -28 l-3 -58 -64 -3 -64 -3 7 32 c3 17 6 44 6 60 0 29 1 29
60 29 l61 0 -3 -57z m125 37 c4 -17 -5 -26 -46 -50 -29 -16 -55 -30 -59 -30
-5 0 -8 23 -8 50 l0 50 54 0 c46 0 54 -3 59 -20z m54 4 c-27 -15 -47 -12 -47
7 0 5 17 9 38 9 l37 -1 -28 -15z m189 -29 c9 -65 2 -75 -50 -75 -37 0 -45 3
-50 23 -11 43 -6 57 32 76 53 29 60 26 68 -24z m252 -16 c16 -67 16 -67 -10
-72 -20 -4 -19 -4 5 -6 26 -1 27 -3 27 -61 0 -57 -1 -60 -24 -60 -28 0 -36 21
-36 93 0 26 -4 47 -9 47 -5 0 -8 -8 -6 -17 2 -10 6 -42 9 -70 l5 -53 -39 0
-38 0 -7 78 c-9 108 -16 115 -10 10 l6 -88 -50 0 -51 0 0 55 c0 58 13 74 62
76 17 1 18 3 6 6 -14 3 -6 14 35 48 l52 43 12 -42 12 -41 -6 53 c-5 50 -5 52
19 52 21 0 26 -7 36 -51z m-849 -31 c1 -16 -3 -28 -9 -28 -5 0 -10 21 -9 48 0
35 3 42 9 27 5 -11 9 -32 9 -47z m481 30 c0 -7 3 -23 6 -35 6 -22 4 -23 -55
-23 -33 0 -61 4 -61 10 0 9 85 58 103 60 4 0 7 -6 7 -12z m-520 -133 l0 -65
-55 0 -55 0 0 58 c0 32 3 62 7 65 3 4 28 7 55 7 l48 0 0 -65z m42 28 l1 -38 4
38 c4 36 5 37 44 37 38 0 39 -1 39 -34 0 -31 -5 -38 -54 -65 -29 -17 -56 -31
-60 -31 -3 0 -6 29 -6 65 0 51 3 65 15 65 10 0 16 -12 17 -37z m187 33 c-2 -2
-23 -15 -46 -30 l-43 -26 0 30 c0 29 1 30 47 30 25 0 44 -2 42 -4z m171 -61
l0 -65 -60 0 -60 0 0 45 c0 41 3 46 38 64 20 11 47 20 60 21 21 0 22 -4 22
-65z m128 38 c-2 -21 -16 -36 -53 -60 -27 -18 -53 -33 -57 -33 -5 0 -8 27 -8
60 l0 60 61 0 c60 0 60 0 57 -27z m62 17 c-43 -30 -50 -31 -50 -10 0 16 6 20
33 20 25 0 29 -3 17 -10z m-965 -32 c-4 -18 -13 -40 -21 -48 -12 -12 -14 -8
-14 33 0 41 3 47 21 47 18 0 20 -4 14 -32z m65 23 c0 -5 -13 -19 -30 -31 -31
-22 -34 -20 -24 18 4 15 14 22 30 22 13 0 24 -4 24 -9z m1260 -5 c0 -7 3 -34
6 -60 6 -42 5 -46 -15 -46 -19 0 -21 5 -21 60 0 47 3 60 15 60 8 0 15 -6 15
-14z m-300 -61 l0 -45 -55 0 c-30 0 -55 4 -55 9 0 9 89 79 103 80 4 1 7 -19 7
-44z m-960 -5 c0 -38 -2 -40 -30 -40 -39 0 -41 30 -2 59 15 11 28 21 30 21 1
0 2 -18 2 -40z m577 -37 c-3 -2 -33 -3 -67 -1 l-61 3 63 36 63 37 3 -35 c2
-19 1 -37 -1 -40z m-647 7 c0 -5 -7 -10 -16 -10 -8 0 -12 5 -9 10 3 6 10 10
16 10 5 0 9 -4 9 -10z m0 -49 c0 -16 3 -43 6 -60 5 -25 3 -31 -10 -31 -19 0
-23 9 -29 73 -4 41 -2 47 14 47 14 0 19 -7 19 -29z m70 -31 c0 -56 -1 -60 -24
-60 -25 0 -36 28 -36 91 0 26 4 29 30 29 l30 0 0 -60z m84 44 c3 -9 6 -36 6
-60 l0 -44 -40 0 -40 0 0 60 0 60 34 0 c22 0 36 -6 40 -16z m106 -34 c0 -54
-15 -70 -64 -70 -24 0 -26 3 -26 44 0 24 -3 51 -6 60 -5 13 2 16 45 16 l51 0
0 -50z m120 46 c0 -6 -96 -76 -104 -76 -3 0 -6 18 -6 40 l0 40 55 0 c30 0 55
-2 55 -4z m130 -56 l0 -60 -60 0 c-57 0 -60 1 -60 25 0 18 13 33 52 60 29 19
56 35 60 35 5 0 8 -27 8 -60z m140 25 c0 -28 -6 -39 -37 -60 -21 -14 -50 -25
-65 -25 -27 0 -28 1 -28 60 l0 60 65 0 65 0 0 -35z m119 32 c-2 -2 -28 -18
-56 -35 l-53 -32 0 35 0 35 57 0 c31 0 54 -1 52 -3z m139 -59 c-1 -62 -1 -63
-8 -18 l-7 45 -1 -42 -2 -43 -50 0 c-50 0 -50 0 -50 33 0 27 7 36 43 59 68 43
77 39 75 -34z m122 2 l0 -60 -55 0 -55 0 0 60 0 60 55 0 55 0 0 -60z m110 38
c0 -13 -3 -40 -6 -60 -6 -37 -8 -38 -50 -38 l-44 0 0 60 0 60 50 0 c45 0 50
-2 50 -22z m82 -20 c-6 -45 -33 -77 -66 -78 -16 0 -18 5 -12 38 3 20 6 47 6
60 0 19 5 22 39 22 l39 0 -6 -42z m68 28 c0 -15 -50 -60 -57 -52 -3 3 -2 18 2
35 5 24 12 31 31 31 14 0 24 -6 24 -14z m-1329 -59 c0 -50 17 -115 18 -74 2
35 30 17 41 -25 6 -24 13 -49 15 -55 2 -7 -4 -13 -14 -13 -12 0 -21 12 -28 38
l-11 37 4 -40 c3 -32 2 -36 -6 -20 l-10 20 4 -20 c2 -11 10 -34 17 -51 12 -30
11 -34 -27 -77 -30 -36 -50 -49 -89 -59 -68 -17 -177 -17 -198 1 -30 24 -21
82 22 147 43 64 216 241 231 237 6 -2 10 2 10 8 0 5 5 7 10 4 6 -3 10 -30 11
-58z m1325 -33 c-7 -17 -56 -19 -56 -2 0 7 12 22 28 34 26 22 27 22 30 2 2
-10 1 -26 -2 -34z m-506 11 c0 -23 -3 -25 -47 -25 l-48 0 40 25 c50 31 55 31
55 0z m-400 -5 c0 -16 -7 -20 -32 -20 l-33 0 30 20 c37 24 35 24 35 0z m840
-10 c0 -5 -5 -10 -11 -10 -5 0 -7 5 -4 10 3 6 8 10 11 10 2 0 4 -4 4 -10z
m-1132 -62 l11 -43 -5 42 -6 43 63 -1 c40 -1 57 -4 47 -10 -8 -4 -37 -29 -64
-54 -54 -50 -84 -55 -94 -15 -22 84 -23 80 8 80 26 0 30 -5 40 -42z m302 -1
c0 -40 -3 -45 -35 -60 -55 -26 -62 -23 -69 35 -8 60 -1 68 62 68 l42 0 0 -43z
m120 30 c0 -7 -25 -25 -55 -40 l-55 -27 0 40 0 40 55 0 c38 0 55 -4 55 -13z
m270 -31 c0 -70 -5 -76 -66 -76 l-54 0 0 60 0 60 60 0 60 0 0 -44z m106 -2
c-8 -61 -20 -74 -68 -74 -33 0 -39 3 -34 16 3 9 6 36 6 60 l0 44 51 0 52 0 -7
-46z m33 29 c1 14 10 17 54 17 l54 0 -9 -47 c-5 -27 -9 -54 -10 -60 -1 -8 -16
-13 -38 -13 -46 0 -56 11 -63 75 -4 32 -3 43 3 30 7 -17 9 -17 9 -2z m211 7
c0 -5 -24 -25 -52 -45 -29 -19 -49 -35 -45 -35 5 0 25 11 45 25 l37 25 7 -22
c6 -22 6 -21 7 4 1 15 6 30 11 33 6 4 8 9 6 13 -2 4 13 8 34 10 35 2 37 1 34
-25 -4 -27 -3 -27 4 -3 6 18 16 26 36 28 26 3 28 2 22 -23 -4 -15 -10 -40 -13
-56 -3 -18 -12 -29 -22 -29 -13 0 -13 -2 -2 -9 10 -7 11 -13 1 -31 -6 -12 -10
-24 -7 -26 2 -3 10 9 17 26 7 16 19 30 26 30 18 0 18 -4 -2 -41 -8 -17 -13
-37 -10 -45 3 -8 2 -12 -3 -9 -5 3 -12 1 -16 -5 -12 -19 -26 -10 -21 13 l6 22
-11 -22 c-8 -14 -21 -23 -36 -23 -27 0 -27 -2 -7 45 8 20 13 39 11 41 -2 2
-14 -22 -27 -53 -46 -111 -69 -143 -101 -143 l-29 0 21 43 c12 23 27 45 33 49
13 9 4 11 -48 8 -23 -1 -42 4 -47 12 -7 10 -9 10 -9 1 0 -8 -13 -13 -31 -13
-27 0 -30 2 -19 16 23 27 51 38 61 23 7 -11 9 -10 9 3 0 16 10 18 71 17 38 -1
73 2 76 5 4 3 -5 6 -19 6 -21 0 -25 4 -21 19 4 16 15 21 51 23 45 3 46 4 48
38 l3 35 -10 -32 c-8 -29 -14 -33 -44 -33 -26 0 -35 4 -36 18 -1 16 -2 16 -6
0 -3 -14 -15 -18 -48 -18 l-44 0 5 48 c3 26 7 53 9 60 5 14 95 17 95 2z m-480
-55 l0 -55 -60 0 c-56 0 -60 2 -60 23 0 16 14 30 58 54 31 17 58 32 60 32 1 1
2 -24 2 -54z m-371 -27 c1 -27 -1 -28 -44 -28 -37 0 -45 3 -45 18 0 11 17 31
37 45 34 25 38 25 45 9 3 -9 7 -29 7 -44z m241 -8 c0 -17 -7 -20 -37 -20 l-38
1 35 19 c19 11 36 19 38 20 1 0 2 -9 2 -20z m-340 -10 c0 -5 -7 -10 -16 -10
-8 0 -12 5 -9 10 3 6 10 10 16 10 5 0 9 -4 9 -10z m-120 -15 c0 -1 -11 -12
-24 -24 l-25 -23 6 23 c3 17 2 20 -5 11 -8 -11 -10 -11 -15 0 -4 11 4 15 29
15 19 0 34 -1 34 -2z m1231 -42 c-11 -21 -20 -35 -21 -31 0 12 33 78 38 74 2
-2 -6 -21 -17 -43z m-1100 25 c0 -10 2 -10 6 0 3 7 22 12 46 12 l42 -1 -29
-16 c-16 -8 -34 -16 -40 -17 -6 -1 -21 -7 -33 -14 -12 -7 -27 -12 -33 -12 -12
0 -30 41 -23 53 7 12 63 8 64 -5z m329 -5 c0 -10 3 -35 6 -55 l7 -38 -51 0
c-28 0 -53 3 -55 8 -3 4 -8 28 -11 55 l-7 47 55 0 c47 0 56 -3 56 -17z m128
-68 l0 -85 -38 -20 c-22 -11 -43 -20 -48 -20 -6 0 -13 26 -16 58 -4 31 -10 78
-13 105 l-6 47 61 0 60 0 0 -85z m122 65 c0 -18 -7 -20 -55 -20 -48 0 -55 2
-55 20 0 18 7 20 55 20 48 0 55 -2 55 -20z m60 5 c-33 -19 -50 -19 -50 0 0 11
11 15 38 15 l37 -1 -25 -14z m174 0 c-7 -18 -12 -18 -44 0 l-25 14 37 1 c29 0
36 -3 32 -15z m94 -2 c-4 -23 -88 -32 -88 -10 0 22 10 27 52 27 32 0 39 -3 36
-17z m-689 -46 l8 -47 -48 0 c-40 0 -49 3 -50 18 -1 16 -2 16 -6 0 -6 -23 -83
-26 -83 -4 0 12 36 29 65 30 6 1 12 4 15 7 7 8 84 48 87 45 2 -2 7 -24 12 -49z
m-286 21 c7 -26 1 -38 -19 -38 -20 0 -29 27 -14 45 17 21 27 19 33 -7z m647
-22 c0 -26 -12 -46 -27 -46 -8 0 -12 -4 -9 -8 4 -7 -54 -42 -69 -42 -3 0 -5
25 -5 55 l0 55 55 0 c41 0 55 -4 55 -14z m49 0 c15 -8 34 -22 41 -31 12 -15 8
-16 -39 -14 -40 2 -51 6 -46 17 3 7 5 20 5 28 0 18 4 18 39 0z m-739 -17 c0
-5 -7 -9 -15 -9 -15 0 -20 12 -9 23 8 8 24 -1 24 -14z m131 -29 c-11 -6 -11
-9 3 -11 9 -2 26 -23 36 -46 l19 -43 -27 0 c-22 0 -32 9 -52 45 -13 24 -26 42
-28 40 -2 -2 6 -20 18 -39 12 -20 19 -40 15 -46 -3 -5 0 -10 7 -10 7 0 26 -16
41 -35 20 -25 24 -35 13 -35 -16 0 -100 90 -122 133 -14 26 -14 28 13 37 15 6
37 14 48 19 24 10 36 4 16 -9z m962 -42 c-15 -24 -45 -61 -65 -83 -21 -22 -38
-43 -38 -47 0 -5 -7 -8 -15 -8 -24 0 -18 16 20 49 20 17 33 31 30 31 -4 0 6
23 21 50 21 38 33 50 51 50 l23 0 -27 -42z m60 27 c4 -8 1 -17 -5 -21 -7 -5
-8 -2 -4 7 4 8 1 5 -8 -5 -8 -10 -13 -24 -9 -30 3 -6 3 -8 -2 -4 -4 4 -14 0
-21 -10 -25 -34 -25 -3 0 37 28 43 40 50 49 26z m-904 -17 l11 -23 -6 23 c-5
20 -2 22 40 22 44 0 45 -1 55 -37 16 -58 14 -63 -24 -63 -27 0 -38 6 -50 28
-15 26 -16 26 -9 2 3 -14 15 -39 26 -57 19 -32 19 -32 -1 -42 -27 -15 -25 -16
-55 29 -23 35 -24 40 -9 41 12 1 10 3 -6 8 -16 4 -30 21 -42 49 l-18 42 38 0
c29 0 41 -5 50 -22z m205 0 c3 -13 6 -35 6 -50 0 -26 -3 -28 -44 -28 -42 0
-44 1 -50 36 -4 19 -10 42 -13 50 -4 11 6 14 45 14 43 0 50 -3 56 -22z m344
-5 c17 -38 15 -73 -4 -73 -12 0 -14 7 -10 33 l5 32 -11 -32 c-10 -30 -14 -33
-54 -33 -39 0 -44 3 -45 23 l-2 22 -4 -22 c-4 -20 -11 -23 -49 -23 -39 0 -44
2 -44 23 0 17 11 28 45 45 56 27 53 27 58 0 4 -20 4 -19 6 5 1 25 4 27 49 27
41 0 49 -3 60 -27z m89 0 l-6 -28 12 28 c9 23 17 27 49 27 21 0 38 -2 38 -5 0
-3 -9 -24 -20 -45 -14 -28 -27 -40 -43 -41 -18 0 -19 -2 -4 -7 16 -7 15 -10
-8 -45 -18 -26 -33 -37 -50 -37 -14 0 -25 2 -25 5 0 3 12 28 26 56 15 27 24
52 21 55 -3 3 -8 -4 -12 -15 -3 -12 -15 -21 -26 -21 -14 0 -19 7 -19 28 0 55
10 72 42 72 28 0 30 -2 25 -27z m-838 -20 c16 -24 19 -33 8 -33 -7 0 -20 11
-27 25 -10 18 -17 22 -24 15 -8 -8 13 -34 72 -91 45 -44 82 -81 82 -83 0 -11
-190 -47 -250 -48 -123 -3 -149 41 -85 143 32 52 39 57 95 72 34 10 65 15 69
12 5 -2 14 2 21 10 7 9 14 14 15 13 1 -2 12 -18 24 -35z m521 -38 c0 -11 -11
-15 -37 -15 l-38 1 25 14 c33 19 50 19 50 0z m-460 -40 c18 -19 31 -37 29 -40
-3 -2 -23 13 -44 35 -22 22 -35 40 -29 40 6 0 25 -16 44 -35z m970 32 c0 -2
-19 -21 -42 -42 -40 -38 -37 -26 6 23 17 19 36 29 36 19z m-855 -44 c21 -32
23 -39 10 -41 -19 -4 -38 11 -66 50 l-20 28 25 0 c18 0 33 -11 51 -37z m765
30 c-1 -18 -61 -73 -80 -73 -19 0 -19 2 6 40 19 28 34 40 50 40 13 0 24 -3 24
-7z m-562 -8 c-2 -2 -26 -12 -55 -24 l-51 -20 -16 24 -16 24 71 0 c39 -1 69
-2 67 -4z m142 -35 l0 -40 -40 0 c-31 0 -40 4 -41 18 -1 15 -2 15 -6 -2 -4
-15 -12 -18 -49 -13 l-44 4 20 -27 c25 -36 25 -40 -3 -40 -16 0 -33 12 -51 38
l-26 37 27 12 c21 8 30 8 35 0 5 -8 8 -7 8 4 0 9 11 21 25 27 35 16 43 15 48
-5 4 -14 5 -12 6 5 1 19 6 22 46 22 l45 0 0 -40z m96 28 c-3 -7 -7 -25 -10
-40 -6 -24 -11 -28 -41 -28 -34 0 -35 1 -35 40 l0 40 45 0 c31 0 43 -4 41 -12z
m94 7 c0 -3 -7 -21 -14 -40 -13 -31 -19 -35 -51 -35 -33 0 -35 2 -29 28 11 50
13 52 54 52 22 0 40 -2 40 -5z m50 -29 c0 -46 -38 -100 -74 -104 l-29 -4 20
35 c11 18 26 50 32 70 9 26 19 37 32 37 15 0 19 -7 19 -34z m29 12 c-17 -34
-19 -34 -19 -5 0 18 5 27 15 27 13 0 14 -4 4 -22z m-634 -59 c4 -5 -3 -8 -14
-6 -28 4 -34 12 -11 14 11 1 22 -2 25 -8z m753 -4 c-2 -5 -9 -10 -16 -12 -8
-1 -22 -9 -32 -18 -10 -9 -24 -14 -30 -10 -6 4 -18 1 -26 -6 -23 -19 -29 -2
-8 23 12 16 9 14 -12 -4 -16 -16 -38 -28 -47 -28 -16 0 -15 4 5 30 21 29 25
30 80 26 32 -2 61 1 64 6 7 12 27 6 22 -7z m-608 -25 c19 -27 20 -30 4 -30
-10 0 -32 12 -48 28 l-31 27 24 -27 c19 -22 21 -28 9 -28 -9 0 -21 7 -28 15
-7 8 -18 15 -24 15 -6 0 -4 -5 4 -10 17 -11 10 -13 -14 -4 -9 3 -16 11 -16 17
0 6 3 7 6 4 4 -3 16 0 28 8 33 23 62 18 86 -15z m141 3 c1 -17 2 -17 6 0 3 12
14 17 38 17 l34 0 -1 -50 c0 -42 -3 -50 -19 -50 -12 0 -24 12 -33 33 -8 17
-15 26 -15 19 -1 -7 4 -22 9 -32 9 -17 6 -19 -30 -18 -22 0 -45 7 -51 14 -6 8
-16 14 -22 14 -6 0 -2 -7 9 -16 19 -15 19 -16 -1 -9 -11 4 -27 8 -35 8 -8 0
-23 5 -32 12 -15 10 -9 12 35 12 34 1 58 -4 70 -14 25 -23 21 -7 -8 31 -14 18
-25 36 -25 39 0 4 16 7 35 7 26 0 35 -4 36 -17z m229 8 c0 -20 -64 -91 -82
-91 -19 0 -20 1 -4 25 9 14 13 25 8 25 -5 0 -14 -11 -20 -25 -20 -44 -42 -31
-42 25 l0 49 70 0 c39 0 70 -4 70 -8z m78 -67 c-13 -7 -26 -10 -30 -8 -4 3
-18 -1 -30 -7 -22 -12 -22 -11 -8 7 15 18 14 18 -12 1 -37 -23 -56 -22 -34 2
14 16 30 19 77 18 52 -1 56 -3 37 -13z m-231 -40 c-3 -3 -12 -4 -19 -1 -8 3
-5 6 6 6 11 1 17 -2 13 -5z"/>
<path d="M832 2905 c-7 -14 -12 -34 -11 -43 0 -9 7 1 15 22 16 45 13 59 -4 21z"/>
<path d="M1480 2900 c0 -8 5 -22 10 -30 9 -13 10 -13 10 0 0 8 -5 22 -10 30
-9 13 -10 13 -10 0z"/>
<path d="M1841 2704 c0 -11 3 -14 6 -6 3 7 2 16 -1 19 -3 4 -6 -2 -5 -13z"/>
<path d="M452 2405 c0 -22 6 -58 14 -80 9 -27 12 -30 8 -10 -4 17 -10 53 -14
80 -7 48 -8 49 -8 10z"/>
<path d="M1479 1893 c-13 -16 -12 -17 4 -4 9 7 17 15 17 17 0 8 -8 3 -21 -13z"/>
<path d="M2392 2858 c-14 -14 -17 -225 -3 -246 5 -9 30 -12 87 -10 77 3 79 4
79 28 0 22 -5 26 -45 30 l-45 5 -3 89 c-2 50 -8 96 -14 103 -13 16 -40 17 -56
1z"/>
<path d="M2611 2856 c-8 -9 -11 -52 -9 -132 l3 -119 115 0 115 0 0 25 c0 24
-2 25 -77 28 -70 3 -78 5 -78 22 0 18 7 20 63 20 70 0 91 9 85 36 -3 16 -15
20 -73 24 -62 4 -70 7 -70 25 0 18 8 20 78 23 l78 3 -3 27 -3 27 -106 3 c-82
2 -109 -1 -118 -12z"/>
<path d="M2894 2857 c-2 -7 -3 -67 -2 -133 l3 -119 115 0 115 0 0 25 c0 24 -3
25 -80 30 -66 4 -80 8 -83 23 -3 15 5 17 56 17 76 0 92 6 92 36 0 22 -4 23
-72 26 -65 3 -73 5 -73 23 0 18 8 20 78 23 82 3 103 16 77 47 -17 20 -218 22
-226 2z"/>
<path d="M3304 2857 c-2 -7 -3 -67 -2 -133 l3 -119 30 0 c28 0 30 3 35 45 l5
45 67 3 c69 3 96 18 84 47 -4 11 -21 15 -69 15 -42 0 -68 5 -76 14 -19 22 8
35 84 38 67 3 70 4 70 28 l0 25 -113 3 c-87 2 -114 0 -118 -11z"/>
<path d="M3635 2861 c-39 -16 -49 -40 -53 -126 -2 -46 -1 -96 2 -110 6 -22 11
-26 39 -23 29 3 32 6 35 41 2 28 8 37 22 37 14 0 20 -9 22 -37 3 -35 6 -38 36
-41 l32 -3 0 109 c0 90 -3 114 -18 132 -19 24 -84 35 -117 21z m60 -92 c0 -24
-5 -35 -17 -37 -14 -3 -18 4 -18 31 0 18 3 37 7 41 15 14 28 -2 28 -35z"/>
<path d="M3824 2857 c-2 -7 -3 -67 -2 -133 l3 -119 30 0 30 0 5 100 c4 80 8
100 20 100 12 0 16 -17 18 -80 3 -118 6 -127 45 -123 l32 3 5 100 c4 80 8 100
20 100 12 0 16 -20 20 -100 l5 -100 30 0 30 0 0 130 0 130 -55 0 c-47 0 -56
-3 -65 -22 -12 -28 -45 -31 -45 -4 0 23 -19 31 -76 31 -28 0 -47 -5 -50 -13z"/>
<path d="M4175 2858 c-3 -8 -4 -68 -3 -134 l3 -119 30 0 30 0 0 130 0 130 -28
3 c-16 2 -29 -2 -32 -10z"/>
<path d="M4295 2858 c-3 -8 -4 -68 -3 -134 l3 -119 80 0 c79 0 80 0 80 25 0
22 -5 26 -45 30 l-45 5 -5 100 -5 100 -28 3 c-16 2 -29 -2 -32 -10z"/>
<path d="M4512 2858 c-12 -12 -16 -95 -6 -122 3 -9 17 -16 30 -16 22 0 24 -4
24 -44 0 -62 8 -76 40 -76 32 0 40 14 40 76 0 40 2 44 24 44 28 0 36 16 36 71
0 49 -15 79 -39 79 -26 0 -39 -19 -43 -65 -2 -27 -8 -40 -18 -40 -10 0 -16 13
-18 40 -2 22 -8 45 -14 52 -13 16 -40 17 -56 1z"/>
<path d="M471 2694 c0 -11 3 -14 6 -6 3 7 2 16 -1 19 -3 4 -6 -2 -5 -13z"/>
<path d="M2667 2404 c-4 -4 -7 -18 -7 -30 0 -18 6 -23 33 -26 l32 -3 5 -100 5
-100 35 0 35 0 5 100 5 100 33 3 c29 3 33 6 30 30 l-3 27 -101 3 c-55 1 -103
0 -107 -4z"/>
<path d="M2932 2398 c-14 -14 -17 -225 -3 -246 5 -8 21 -12 37 -10 27 3 29 6
32 51 l3 47 44 0 44 0 3 -47 c3 -46 4 -48 36 -51 l32 -3 0 54 c0 46 -3 55 -20
60 -11 3 -20 12 -20 20 0 9 9 19 20 22 15 5 20 15 20 38 0 38 -7 50 -37 66
-29 15 -175 15 -191 -1z m153 -73 c0 -15 -8 -21 -34 -23 -38 -4 -57 9 -47 33
4 12 16 15 43 13 30 -2 38 -7 38 -23z"/>
<path d="M3254 2398 c-37 -17 -45 -47 -42 -153 l3 -100 30 0 c27 0 31 4 35 35
4 27 10 35 25 35 15 0 21 -8 25 -35 4 -31 8 -35 35 -35 l30 0 3 103 c3 102 3
103 -27 132 -31 32 -75 39 -117 18z m74 -97 c-2 -18 -9 -26 -23 -26 -24 0 -33
38 -14 61 17 21 41 -2 37 -35z"/>
<path d="M3450 2395 c-17 -21 -8 -168 13 -217 16 -38 16 -38 76 -38 l59 0 17
49 c11 33 15 75 13 132 l-3 84 -30 0 -30 0 -5 -95 c-4 -80 -8 -95 -22 -98 -16
-3 -18 6 -18 78 0 45 -5 90 -10 101 -13 23 -43 25 -60 4z"/>
<path d="M3684 2397 c-2 -7 -3 -67 -2 -133 l3 -119 115 0 115 0 0 25 c0 24 -3
25 -80 30 -66 4 -80 8 -83 23 -3 15 5 17 56 17 76 0 92 6 92 36 0 22 -4 23
-72 26 -65 3 -73 5 -73 23 0 18 8 20 78 23 82 3 103 16 77 47 -17 20 -218 22
-226 2z"/>
<path d="M3971 2396 c-8 -9 -11 -54 -9 -132 l3 -119 81 -3 c66 -2 83 0 87 13
12 30 -4 45 -49 45 l-44 0 0 86 c0 47 -5 94 -10 105 -12 22 -43 25 -59 5z"/>
<path d="M4225 2398 c-31 -18 -44 -40 -44 -73 0 -55 42 -85 119 -85 21 0 41
-4 44 -8 12 -20 -15 -31 -84 -34 -73 -3 -75 -4 -75 -28 0 -25 1 -25 93 -28 87
-3 94 -1 117 22 31 31 32 74 4 110 -17 22 -28 26 -74 26 -32 0 -57 5 -64 14
-19 22 8 35 84 38 67 3 70 4 70 28 0 25 -2 25 -85 27 -51 2 -93 -2 -105 -9z"/>
<path d="M1831 2334 c0 -11 3 -14 6 -6 3 7 2 16 -1 19 -3 4 -6 -2 -5 -13z"/>
<path d="M1841 2294 c0 -11 3 -14 6 -6 3 7 2 16 -1 19 -3 4 -6 -2 -5 -13z"/>
</g>
</svg>
