<svg id="Layer_1" data-name="Layer 1" xmlns="http://www.w3.org/2000/svg" viewBox="0 0 128 128"><title>LOCATION</title><ellipse cx="64" cy="94.379" rx="54.5" ry="13.333" style="fill:#feded6"/><ellipse cx="64" cy="94.379" rx="33.613" ry="7.176" style="fill:#f6c6bb"/><path d="M64,20.288A29.333,29.333,0,0,0,34.667,49.621C34.667,71.288,64,95.871,64,95.871s29.333-23.917,29.333-46.25A29.333,29.333,0,0,0,64,20.288Zm0,42.289A12.956,12.956,0,1,1,76.956,49.621,12.956,12.956,0,0,1,64,62.577Z" style="fill:#ec4d85"/><path d="M59.75,20.6A29.337,29.337,0,0,0,34.667,49.621c0,16.51,17.023,34.7,25.13,42.432,8.144-7.624,25.037-25.479,25.037-42.432A29.337,29.337,0,0,0,59.75,20.6ZM64,62.577H55.5a12.956,12.956,0,1,1,0-25.912H64a12.956,12.956,0,1,1,0,25.912Z" style="fill:#fd748c"/></svg>