<?xml version="1.0" encoding="utf-8"?>
<!-- Generator: Adobe Illustrator 21.0.0, SVG Export Plug-In . SVG Version: 6.00 Build 0)  -->
<svg version="1.1" id="Layer_1" xmlns="http://www.w3.org/2000/svg" xmlns:xlink="http://www.w3.org/1999/xlink" x="0px" y="0px"
	 viewBox="0 0 512 512" style="enable-background:new 0 0 512 512;" xml:space="preserve">
<style type="text/css">
	.st0{fill:#71CCE0;}
	.st1{fill:#DFDFDF;}
	.st2{fill:#4A555F;}
	.st3{fill:#FFD452;}
	.st4{fill:#F58E6F;}
	.st5{fill:#FFFFFF;}
	.st6{fill:none;}
</style>
<g>
	<g>
		<g>
			<path class="st1" d="M400.279,273.233l-32.61-29.311c-7.101-6.384-12.462-14.542-15.503-23.595l-20.198-60.116l-0.127-1.139
				c-2.177-19.552-17.316-35.061-36.816-37.716c-1.817-0.247-3.658-0.373-5.469-0.373c-14.547,0-28.878,8.291-38.336,22.179
				c-4.645,6.82-9.791,13.231-14.768,19.432c-1.803,2.246-3.604,4.49-5.375,6.746l-72.52,92.386
				c-3.112,3.964-2.999,9.626,0.27,13.462c2.025,2.375,4.978,3.737,8.103,3.737c2.61,0,5.124-0.96,7.074-2.703l50.864-45.452
				l-1.2,25.497c-0.55,11.691,1.495,23.495,5.929,34.34c0.8,1.957,1.338,4.012,1.476,6.122l0.033,0.509
				c0.123,1.895-0.047,3.798-0.504,5.641l-15.409,62.085c-2.943,11.826-9.418,22.218-18.724,30.055l-48.603,38.966
				c-3.696,3.153-5.942,7.554-6.329,12.405c-0.389,4.886,1.159,9.62,4.359,13.33c3.457,4.01,8.485,6.31,13.798,6.31
				c3.533,0,6.973-1.025,9.799-2.864l61.314-41.44c7.176-4.702,12.453-11.81,14.877-20.081l19.399-64.707l15.519,17.678l0.449,0.713
				c6.501,10.294,9.529,22.158,8.76,34.307l-5.497,62.065c-0.34,5.924,2.158,11.573,6.967,15.403
				c2.689,2.141,6.008,3.437,9.43,3.761c0.607,0.057,1.207,0.086,1.799,0.086c4.923,0,9.713-2.052,13.139-5.63
				c2.439-2.546,4.079-5.741,4.708-9.046l12.478-72.961c1.577-8.432,0.096-17.153-4.168-24.555l-0.285-0.493
				c-5.959-10.34-12.12-21.031-17.709-31.897c-0.694-1.347-1.378-2.697-2.05-4.046c-11.585-23.238-4.062-48.724,2.577-71.209
				c1.412-4.783,2.746-9.301,3.85-13.641l19.366-3.108l13.894,21.554c1.776,2.755,3.94,5.239,6.425,7.375l31.205,26.829
				c2.574,2.215,5.333,2.679,7.193,2.679c0.002,0,0,0,0.002,0c4.394,0,8.349-2.524,10.176-6.639
				C405.283,281.718,403.895,276.483,400.279,273.233z"/>
		</g>
	</g>
	<g>
		<g>
			<g>
				<path class="st2" d="M232.138,310.795c-3.236-4.585-6.03-9.493-8.308-14.59l-3.805-8.514l-18.345,73.906
					c-2.229,8.963-7.134,16.836-14.122,22.719l-48.578,38.944c-6.614,5.574-10.635,13.395-11.322,22.022
					c-0.686,8.624,2.046,16.978,7.691,23.524c6.103,7.081,14.975,11.142,24.344,11.142c6.235,0,12.302-1.805,17.594-5.252
					l61.146-41.329c9.939-6.512,17.251-16.366,20.583-27.729l14.356-47.893L232.138,310.795z M252.857,403.814
					c-2.907,9.918-9.28,18.504-17.983,24.206l-61.138,41.324c-4.2,2.735-9.056,4.18-14.043,4.18c-7.496,0-14.595-3.248-19.477-8.913
					c-4.516-5.236-6.701-11.919-6.153-18.818c0.55-6.903,3.767-13.16,8.998-17.569l48.576-38.943
					c8.09-6.81,13.719-15.846,16.281-26.134l14.016-56.468c1.55,2.736,3.24,5.399,5.059,7.966l39.206,44.664L252.857,403.814z"/>
			</g>
		</g>
	</g>
	<g>
		<g>
			<g>
				<path class="st2" d="M352.337,36.876c-8.977-8.975-20.909-13.918-33.603-13.917c-26.203,0.001-47.522,21.32-47.522,47.523
					c0,12.694,4.942,24.627,13.917,33.603c8.977,8.975,20.909,13.918,33.603,13.917c26.203-0.001,47.522-21.32,47.522-47.524
					C366.255,57.784,361.312,45.851,352.337,36.876z M318.732,111.576c-10.976,0.001-21.296-4.274-29.058-12.036
					c-7.762-7.762-12.037-18.082-12.037-29.059c0-22.661,18.437-41.097,41.097-41.098c10.976,0,21.296,4.274,29.058,12.036
					s12.037,18.082,12.037,29.059C359.829,93.139,341.392,111.575,318.732,111.576z"/>
			</g>
		</g>
	</g>
	<g>
		<g>
			<path class="st3" d="M342.493,46.72c-6.346-6.346-14.783-9.84-23.76-9.84c-18.527,0.001-33.599,15.075-33.599,33.602
				c0,8.975,3.495,17.413,9.841,23.759c6.346,6.346,14.783,9.84,23.758,9.84c18.527-0.001,33.601-15.074,33.601-33.602
				C352.333,61.503,348.838,53.065,342.493,46.72z"/>
		</g>
	</g>
	<g>
		<g>
			<g>
				<path class="st2" d="M409.87,263.135l-32.892-29.566c-5.321-4.783-9.339-10.895-11.616-17.676l-19.834-59.038l-6.237,1.391
					c0.678,5.881,0.276,11.855-1.194,17.758l-15.797,63.384l0.416,2.518l13.896,21.553c2.499,3.882,5.545,7.377,9.05,10.39
					l31.204,26.829c4.568,3.928,10.347,6.044,16.285,6.044c1.255,0,2.518-0.095,3.777-0.286c7.216-1.1,13.572-5.283,17.437-11.475
					v-0.001C420.8,284.645,418.909,271.261,409.87,263.135z M408.914,291.557c-2.872,4.6-7.594,7.708-12.955,8.525
					c-5.369,0.817-10.794-0.742-14.906-4.277l-31.204-26.829c-3.035-2.609-5.672-5.636-7.837-8.998l-13.143-20.386l15.461-62.035
					c0.203-0.813,0.389-1.628,0.554-2.443l14.388,42.825c2.631,7.829,7.268,14.887,13.411,20.408l32.892,29.566
					C412.29,273.951,413.695,283.894,408.914,291.557z"/>
			</g>
		</g>
	</g>
	<g>
		<g>
			<g>
				<path class="st2" d="M340.729,351.805l-0.345-0.599c-5.858-10.163-11.913-20.673-17.335-31.211
					c-0.663-1.293-1.322-2.589-1.968-3.886c-9.142-18.336-2.729-40.052,3.472-61.052c1.544-5.223,2.999-10.156,4.212-15.024
					l15.572-62.478c3.899-15.633,0.95-32.248-8.09-45.585c-9.038-13.338-23.377-22.234-39.342-24.408
					c-21.61-2.942-43.525,7.695-57.191,27.762c-4.342,6.373-9.316,12.572-14.126,18.567c-1.832,2.281-3.66,4.56-5.459,6.852
					l-72.522,92.386c-7.187,9.155-6.925,22.229,0.623,31.087c4.325,5.075,10.37,8.119,17.023,8.572
					c6.653,0.452,13.055-1.745,18.025-6.187l26.429-23.613c0.586,18.469,6.607,36.575,17.293,51.665l42.415,48.318
					c4.831,7.747,7.08,16.655,6.509,25.7l-5.497,62.022c-0.55,8.628,2.313,16.938,8.063,23.399
					c5.754,6.466,13.683,10.277,22.329,10.732c0.563,0.029,1.121,0.044,1.682,0.044c8.734,0,17.113-3.563,23.201-9.921
					c4.302-4.491,7.197-10.117,8.379-16.33l12.438-72.748C348.706,374.179,346.65,362.081,340.729,351.805z M340.194,384.738
					l-12.436,72.738c-0.939,4.931-3.255,9.436-6.695,13.027c-5.187,5.414-12.445,8.291-19.907,7.906
					c-6.917-0.364-13.262-3.414-17.866-8.587c-4.599-5.169-6.892-11.817-6.457-18.64l5.497-62.024
					c0.667-10.567-1.966-20.882-7.615-29.829l-42.565-48.526c-11.217-15.906-16.889-35.393-15.969-54.891l0.362-7.65l-37.543,33.546
					c-3.673,3.28-8.416,4.902-13.308,4.568c-4.913-0.334-9.376-2.581-12.57-6.328c-5.572-6.54-5.766-16.192-0.46-22.952
					l72.522-92.386c1.786-2.274,3.6-4.535,5.417-6.798c4.888-6.092,9.943-12.391,14.423-18.971
					c12.476-18.315,31.549-27.664,51.017-25.013c14.158,1.928,26.874,9.817,34.889,21.645c8.017,11.828,10.631,26.563,7.176,40.423
					l-15.572,62.482c-1.182,4.734-2.619,9.603-4.141,14.758c-6.248,21.159-13.33,45.141-3.06,65.741
					c0.659,1.321,1.328,2.638,2.002,3.953l0.002,0.004c5.49,10.674,11.587,21.251,17.481,31.48l0.345,0.599
					C340.319,363.963,342.11,374.501,340.194,384.738z"/>
			</g>
		</g>
	</g>
	<g>
		<g>
			
				<rect x="205.497" y="234.183" transform="matrix(0.7158 -0.6983 0.6983 0.7158 -99.8979 229.3309)" class="st2" width="52.601" height="6.427"/>
		</g>
	</g>
	<g>
		<g>
			<g>
				<path class="st2" d="M473.269,295.133l-111.53,52.539l38.733,82.219L512,377.352L473.269,295.133z M370.289,350.747
					l99.905-47.064l33.256,70.595l-99.903,47.063L370.289,350.747z"/>
			</g>
		</g>
	</g>
	<g>
		<g>
			
				<rect x="389.149" y="330.99" transform="matrix(0.9046 -0.4262 0.4262 0.9046 -112.8335 220.7498)" class="st3" width="95.441" height="63.043"/>
		</g>
	</g>
	<g>
		<g>
			<g>
				<path class="st2" d="M425.456,301.763l-28.776,13.556l8.866,18.819l28.773-13.555L425.456,301.763z M405.231,318.393
					l17.151-8.079l3.388,7.194l-17.149,8.079L405.231,318.393z"/>
			</g>
		</g>
	</g>
	<g>
		<g>
			<g>
				<path class="st2" d="M436.292,294.547c-2.447-5.195-8.724-7.405-13.988-4.925l-32.823,15.463
					c-2.539,1.196-4.472,3.296-5.44,5.912c-0.977,2.638-0.86,5.483,0.331,8.01l9.68,20.547l51.921-24.46L436.292,294.547z
					 M390.184,316.267c-0.448-0.954-0.492-2.033-0.117-3.04c0.381-1.028,1.144-1.856,2.154-2.331l32.823-15.463
					c0.584-0.275,1.198-0.406,1.801-0.406c1.523,0,2.964,0.831,3.635,2.257l6.942,14.734l-40.296,18.983L390.184,316.267z"/>
			</g>
		</g>
	</g>
	<g>
		<g>
			<g>
				<path class="st2" d="M404.406,347.774l2.719,5.822l5.821-2.719l-2.719-5.822L404.406,347.774z M381.121,358.653l2.719,5.821
					l5.821-2.72l-2.719-5.821L381.121,358.653z M392.765,353.214l2.719,5.821l5.821-2.72l-2.719-5.821L392.765,353.214z
					 M416.05,342.336l2.719,5.821l5.821-2.72l-2.719-5.821L416.05,342.336z M439.335,331.458l2.719,5.821l5.821-2.72l-2.719-5.821
					L439.335,331.458z M427.692,336.897l2.719,5.821l5.821-2.72l-2.719-5.821L427.692,336.897z M468.441,317.861l-5.821,2.719
					l2.719,5.821l5.821-2.72L468.441,317.861z M450.977,326.018l2.719,5.822l5.823-2.72l-2.719-5.822L450.977,326.018z"/>
			</g>
		</g>
	</g>
	<g>
		<g>
			<g>
				<path class="st2" d="M80.308,299.766c-15.478-6.257-33.155,1.239-39.415,16.714L1.773,413.21
					c-5.024,12.426,0.998,26.624,13.422,31.65l30.917,12.504l1.205-2.979c4.185-10.352,15.672-15.421,26.124-11.553
					c0.826,0.31,1.537,0.625,2.228,0.992c9.251,4.697,13.516,15.604,9.922,25.371l5.992,2.314l58.11-143.681L80.308,299.766z
					 M78.631,438.123c-0.885-0.47-1.843-0.897-2.947-1.312c-3.123-1.156-6.314-1.705-9.445-1.705
					c-9.636,0-18.711,5.203-23.503,13.962l-25.132-10.164c-9.14-3.697-13.57-14.143-9.874-23.284l39.12-96.729
					c4.932-12.191,18.859-18.096,31.049-13.167l63.426,25.652L91.904,453.572C89.741,447.064,85.119,441.417,78.631,438.123z"/>
			</g>
		</g>
	</g>
	<g>
		<g>
			<path class="st0" d="M75.089,312.672c-1.968-0.797-4.029-1.2-6.12-1.2c-6.703,0-12.656,4.015-15.168,10.228L14.678,418.43
				c-1.039,2.572-1.016,5.395,0.067,7.95c1.083,2.554,3.095,4.533,5.67,5.574l19.573,7.917c6.417-7.647,15.959-12.236,26.354-12.236
				c4.076,0,8.096,0.722,11.993,2.165c1.391,0.522,2.64,1.081,3.631,1.611c3.156,1.602,5.967,3.632,8.394,5.99l41.208-101.887
				L75.089,312.672z"/>
		</g>
	</g>
	<g>
		<g>
			<g>
				<path class="st2" d="M162.655,285.899c-3.746-0.892-7.04-2.915-9.531-5.853c-2.276-2.679-3.708-5.896-4.143-9.303l-1.562-12.181
					l-26.163,64.697l26.029,10.517l19.004-47.011L162.655,285.899z M143.737,325.411l-14.116-5.703l15.915-39.355
					c0.766,1.354,1.665,2.642,2.688,3.848c2.575,3.036,5.783,5.354,9.414,6.822L143.737,325.411z"/>
			</g>
		</g>
	</g>
	<g>
		<g>
			<g>
				<path class="st2" d="M90.816,450.807c-3.012-6.538-8.389-11.512-15.141-14.005c-6.756-2.495-14.074-2.209-20.61,0.801
					c-6.538,3.011-11.512,8.388-14.005,15.14c-2.493,6.752-2.209,14.071,0.801,20.61c3.012,6.538,8.389,11.512,15.141,14.006
					c3.043,1.124,6.201,1.684,9.351,1.684c3.838,0,7.666-0.831,11.259-2.485c6.538-3.011,11.512-8.388,14.005-15.141v0
					C94.11,464.664,93.826,457.345,90.816,450.807z M85.589,469.19L85.589,469.19c-1.899,5.143-5.687,9.237-10.667,11.53
					c-4.976,2.294-10.552,2.51-15.695,0.611c-5.141-1.9-9.236-5.687-11.529-10.667c-2.294-4.979-2.51-10.553-0.611-15.696
					c1.899-5.142,5.687-9.237,10.665-11.53c2.736-1.26,5.649-1.893,8.573-1.893c2.399,0,4.806,0.426,7.124,1.282
					c5.141,1.899,9.236,5.687,11.529,10.666C87.273,458.474,87.489,464.048,85.589,469.19z"/>
			</g>
		</g>
	</g>
	<g>
		<g>
			<path class="st4" d="M70.851,449.859c-1.462-0.539-2.979-0.813-4.509-0.813c-5.43,0-10.341,3.424-12.223,8.521
				c-1.207,3.264-1.069,6.802,0.387,9.962c1.456,3.16,4.056,5.565,7.318,6.771c1.462,0.54,2.979,0.813,4.512,0.813
				c5.428,0,10.341-3.424,12.223-8.519C81.048,459.856,77.59,452.348,70.851,449.859z"/>
		</g>
	</g>
	<g>
		<g>
			<g>
				<path class="st2" d="M37.264,403.64l5.953,2.422l2.422-5.952l-5.953-2.422L37.264,403.64z M42.106,391.737l5.953,2.422
					l2.422-5.952l-5.953-2.422L42.106,391.737z M46.948,379.833l5.953,2.422l2.422-5.951l-5.953-2.422L46.948,379.833z
					 M27.58,427.447l5.953,2.422l2.422-5.951l-5.953-2.422L27.58,427.447z M20.072,445.908l5.948,2.428l0.249-0.61l-5.948-2.428
					L20.072,445.908z M22.739,439.35l5.952,2.422l2.422-5.951l-5.953-2.422L22.739,439.35z M32.422,415.543l5.953,2.422l2.422-5.951
					l-5.953-2.422L32.422,415.543z M66.316,332.22l5.953,2.422l2.422-5.952l-5.953-2.422L66.316,332.22z M71.158,320.317
					l5.953,2.422l2.422-5.951l-5.953-2.422L71.158,320.317z M78.422,302.462L76,308.413l5.953,2.422l2.422-5.952L78.422,302.462z
					 M56.632,356.027l5.952,2.422l2.422-5.952l-5.953-2.422L56.632,356.027z M51.79,367.93l5.953,2.422l2.422-5.952l-5.952-2.422
					L51.79,367.93z M61.474,344.123l5.953,2.422l2.422-5.951l-5.953-2.422L61.474,344.123z"/>
			</g>
		</g>
	</g>
	<g>
		<g>
			<path class="st2" d="M261.815,91.144v-6.425h-67.992l40.229-43.446h-35.615l-81.085,43.446H65.53
				c-8.822,0-17.295,2.688-24.503,7.775l-18.989,13.4c-4.058,2.865-6.482,7.542-6.482,12.509c0,8.443,6.869,15.311,15.312,15.311
				h195.432v-6.425H30.868c-4.901,0-8.887-3.986-8.887-8.886c0-2.883,1.406-5.597,3.763-7.26l18.989-13.4
				c6.116-4.317,13.309-6.599,20.796-6.599h53.437l81.085-43.446h19.292l-40.229,43.446H261.815z"/>
		</g>
	</g>
	<g>
		<g>
			<path class="st4" d="M161.95,98.647l16.663-17.99l23.581-25.466h-0.257l-78.709,42.171l-2.377,1.285H65.528
				c-5.933,0-11.63,1.799-16.47,5.226l-18.997,13.386c-0.364,0.278-0.578,0.685-0.578,1.135c0,0.772,0.621,1.393,1.392,1.393
				h200.039c7.539-9.017,14.985-16.492,25.971-21.139H161.95z"/>
		</g>
	</g>
	<g>
		<g>
			<g>
				<path class="st2" d="M83.021,121.615h6.425v-6.425h-6.425V121.615z M70.171,121.615h6.425v-6.425h-6.425V121.615z
					 M121.573,121.615h6.425v-6.425h-6.425V121.615z M108.722,121.615h6.425v-6.425h-6.425V121.615z M18.769,121.615h6.425v-6.425
					h-6.425V121.615z M57.32,121.615h6.425v-6.425H57.32V121.615z M31.619,121.615h6.425v-6.425h-6.425V121.615z M44.47,121.615
					h6.425v-6.425H44.47V121.615z M95.872,121.615h6.425v-6.425h-6.425V121.615z M198.675,121.615h6.425v-6.425h-6.425V121.615z
					 M211.526,121.615h6.425v-6.425h-6.425V121.615z M185.825,121.615h6.425v-6.425h-6.425V121.615z M224.376,115.19v6.425h6.425
					v-6.425H224.376z M172.974,121.615h6.425v-6.425h-6.425V121.615z M147.273,121.615h6.425v-6.425h-6.425V121.615z
					 M160.124,121.615h6.425v-6.425h-6.425V121.615z M134.423,121.615h6.425v-6.425h-6.425V121.615z"/>
			</g>
		</g>
	</g>
	<g>
		<g>
			<g>
				<path class="st2" d="M437.484,387.798l2.719,5.821l5.821-2.72l-2.719-5.821L437.484,387.798z M425.841,393.237l2.719,5.821
					l5.821-2.72l-2.719-5.821L425.841,393.237z M402.555,404.115l2.719,5.821l5.821-2.72l-2.719-5.821L402.555,404.115z
					 M414.199,398.675l2.719,5.822l5.821-2.719l-2.719-5.822L414.199,398.675z M449.126,382.359l2.719,5.822l5.823-2.72
					l-2.719-5.822L449.126,382.359z M472.411,371.481l2.719,5.822l5.823-2.719l-2.719-5.822L472.411,371.481z M489.875,363.323
					l-5.821,2.72l2.719,5.821l5.821-2.72L489.875,363.323z M460.77,376.92l2.719,5.821l5.821-2.72l-2.719-5.821L460.77,376.92z"/>
			</g>
		</g>
	</g>
</g>
</svg>
